<svg xmlns="http://www.w3.org/2000/svg" width="296" height="341" viewBox="0 0 296 341">
      <style>
        .pet { transform-origin: center; }
      </style>
      <!-- Theme Background -->
      
        <rect x="5" y="5" width="286" height="326" rx="12" ry="12" fill="rgba(45, 51, 59, 0.15)"/>
      
      <!-- Weather Effects (behind pet) -->
      <g class="weather-layer" style="pointer-events: none;">
        
        <g>
          <circle cx="94.4832759758259" cy="87.08566830676821" r="3" fill="#FFEB3B" opacity="0.8">
          <animate attributeName="cx" values="94.4832759758259;123.09247218597662;94.4832759758259" dur="5.181013042132493s" repeatCount="indefinite"/>
          <animate attributeName="cy" values="87.08566830676821;97.5210595129843;87.08566830676821" dur="5.181013042132493s" repeatCount="indefinite"/>
          <animate attributeName="opacity" values="0.3;0.9;0.3" dur="1.5s" repeatCount="indefinite"/>
        </circle><circle cx="119.41407066286456" cy="128.03382618469368" r="3" fill="#FFEB3B" opacity="0.8">
          <animate attributeName="cx" values="119.41407066286456;116.30293916044427;119.41407066286456" dur="5.295311781617404s" repeatCount="indefinite"/>
          <animate attributeName="cy" values="128.03382618469368;117.21853337864529;128.03382618469368" dur="5.295311781617404s" repeatCount="indefinite"/>
          <animate attributeName="opacity" values="0.3;0.9;0.3" dur="1.5s" repeatCount="indefinite"/>
        </circle><circle cx="134.66313762453734" cy="118.36614007056204" r="3" fill="#FFEB3B" opacity="0.8">
          <animate attributeName="cx" values="134.66313762453734;117.83399337388697;134.66313762453734" dur="5.386724403114972s" repeatCount="indefinite"/>
          <animate attributeName="cy" values="118.36614007056204;116.97094841573694;118.36614007056204" dur="5.386724403114972s" repeatCount="indefinite"/>
          <animate attributeName="opacity" values="0.3;0.9;0.3" dur="1.5s" repeatCount="indefinite"/>
        </circle><circle cx="53.546928793398024" cy="192.2446751342848" r="3" fill="#FFEB3B" opacity="0.8">
          <animate attributeName="cx" values="53.546928793398024;50.20770558915362;53.546928793398024" dur="4.4152181676525215s" repeatCount="indefinite"/>
          <animate attributeName="cy" values="192.2446751342848;205.14500136868054;192.2446751342848" dur="4.4152181676525215s" repeatCount="indefinite"/>
          <animate attributeName="opacity" values="0.3;0.9;0.3" dur="1.5s" repeatCount="indefinite"/>
        </circle><circle cx="58.501366984260756" cy="244.5697967043395" r="3" fill="#FFEB3B" opacity="0.8">
          <animate attributeName="cx" values="58.501366984260756;58.96292222479317;58.501366984260756" dur="5.3836737948285025s" repeatCount="indefinite"/>
          <animate attributeName="cy" values="244.5697967043395;236.44498780213357;244.5697967043395" dur="5.3836737948285025s" repeatCount="indefinite"/>
          <animate attributeName="opacity" values="0.3;0.9;0.3" dur="1.5s" repeatCount="indefinite"/>
        </circle><circle cx="242.26932091965625" cy="139.4873750859535" r="3" fill="#FFEB3B" opacity="0.8">
          <animate attributeName="cx" values="242.26932091965625;242.06808922199247;242.26932091965625" dur="6.73379686094805s" repeatCount="indefinite"/>
          <animate attributeName="cy" values="139.4873750859535;116.08578110870694;139.4873750859535" dur="6.73379686094805s" repeatCount="indefinite"/>
          <animate attributeName="opacity" values="0.3;0.9;0.3" dur="1.5s" repeatCount="indefinite"/>
        </circle><circle cx="240.8361566102978" cy="157.09901728177883" r="3" fill="#FFEB3B" opacity="0.8">
          <animate attributeName="cx" values="240.8361566102978;218.91980200041542;240.8361566102978" dur="4.409961403397746s" repeatCount="indefinite"/>
          <animate attributeName="cy" values="157.09901728177883;132.90647405060986;157.09901728177883" dur="4.409961403397746s" repeatCount="indefinite"/>
          <animate attributeName="opacity" values="0.3;0.9;0.3" dur="1.5s" repeatCount="indefinite"/>
        </circle><circle cx="213.86116065448766" cy="77.35405781744637" r="3" fill="#FFEB3B" opacity="0.8">
          <animate attributeName="cx" values="213.86116065448766;236.8474707146392;213.86116065448766" dur="5.175198458724901s" repeatCount="indefinite"/>
          <animate attributeName="cy" values="77.35405781744637;86.13253787489694;77.35405781744637" dur="5.175198458724901s" repeatCount="indefinite"/>
          <animate attributeName="opacity" values="0.3;0.9;0.3" dur="1.5s" repeatCount="indefinite"/>
        </circle><circle cx="190.20680290036665" cy="178.56127278274178" r="3" fill="#FFEB3B" opacity="0.8">
          <animate attributeName="cx" values="190.20680290036665;195.13274574752418;190.20680290036665" dur="3.2870567481908317s" repeatCount="indefinite"/>
          <animate attributeName="cy" values="178.56127278274178;157.3296444628912;178.56127278274178" dur="3.2870567481908317s" repeatCount="indefinite"/>
          <animate attributeName="opacity" values="0.3;0.9;0.3" dur="1.5s" repeatCount="indefinite"/>
        </circle><circle cx="133.3019493199285" cy="47.375359988689176" r="3" fill="#FFEB3B" opacity="0.8">
          <animate attributeName="cx" values="133.3019493199285;110.46515306737017;133.3019493199285" dur="3.994523789102389s" repeatCount="indefinite"/>
          <animate attributeName="cy" values="47.375359988689176;57.83344060675033;47.375359988689176" dur="3.994523789102389s" repeatCount="indefinite"/>
          <animate attributeName="opacity" values="0.3;0.9;0.3" dur="1.5s" repeatCount="indefinite"/>
        </circle>
        </g>
      
      </g>
      <!-- Evolution Effects (behind pet) -->
      <g class="evolution-layer" style="pointer-events: none;">
        
      </g>
      <g transform="translate(20, 20)" opacity="0.7">
        <g class="pet">
            <rect x="80" y="0" width="16" height="16" fill="#2d333b" /><rect x="112" y="0" width="16" height="16" fill="#2d333b" /><rect x="144" y="0" width="16" height="16" fill="#2d333b" /><rect x="48" y="16" width="16" height="16" fill="#2d333b" /><rect x="80" y="16" width="16" height="16" fill="#00ADD8" /><rect x="112" y="16" width="16" height="16" fill="#00ADD8" /><rect x="144" y="16" width="16" height="16" fill="#00ADD8" /><rect x="176" y="16" width="16" height="16" fill="#00ADD8" /><rect x="208" y="16" width="16" height="16" fill="#2d333b" /><rect x="32" y="32" width="16" height="16" fill="#2d333b" /><rect x="64" y="32" width="16" height="16" fill="#00ADD8" /><rect x="96" y="32" width="16" height="16" fill="#00ADD8" /><rect x="128" y="32" width="16" height="16" fill="#00ADD8" /><rect x="160" y="32" width="16" height="16" fill="#00ADD8" /><rect x="192" y="32" width="16" height="16" fill="#00ADD8" /><rect x="16" y="48" width="16" height="16" fill="#2d333b" /><rect x="48" y="48" width="16" height="16" fill="#00ADD8" /><rect x="80" y="48" width="16" height="16" fill="#2d333b" /><rect x="112" y="48" width="16" height="16" fill="#2d333b" /><rect x="144" y="48" width="16" height="16" fill="#00ADD8" /><rect x="176" y="48" width="16" height="16" fill="#00ADD8" /><rect x="208" y="48" width="16" height="16" fill="#2d333b" /><rect x="16" y="64" width="16" height="16" fill="#2d333b" /><rect x="48" y="64" width="16" height="16" fill="#00ADD8" /><rect x="80" y="64" width="16" height="16" fill="#2d333b" /><rect x="112" y="64" width="16" height="16" fill="#2d333b" /><rect x="144" y="64" width="16" height="16" fill="#00ADD8" /><rect x="176" y="64" width="16" height="16" fill="#00ADD8" /><rect x="208" y="64" width="16" height="16" fill="#2d333b" /><rect x="0" y="80" width="16" height="16" fill="#2d333b" /><rect x="32" y="80" width="16" height="16" fill="#00ADD8" /><rect x="64" y="80" width="16" height="16" fill="#00ADD8" /><rect x="96" y="80" width="16" height="16" fill="#00ADD8" /><rect x="128" y="80" width="16" height="16" fill="#00ADD8" /><rect x="160" y="80" width="16" height="16" fill="#00ADD8" /><rect x="192" y="80" width="16" height="16" fill="#2d333b" /><rect x="224" y="80" width="16" height="16" fill="#2d333b" /><rect x="0" y="96" width="16" height="16" fill="#2d333b" /><rect x="32" y="96" width="16" height="16" fill="#00ADD8" /><rect x="64" y="96" width="16" height="16" fill="#00ADD8" /><rect x="96" y="96" width="16" height="16" fill="#00ADD8" /><rect x="128" y="96" width="16" height="16" fill="#2d333b" /><rect x="160" y="96" width="16" height="16" fill="#00ADD8" /><rect x="192" y="96" width="16" height="16" fill="#00ADD8" /><rect x="224" y="96" width="16" height="16" fill="#2d333b" /><rect x="16" y="112" width="16" height="16" fill="#2d333b" /><rect x="48" y="112" width="16" height="16" fill="#00ADD8" /><rect x="80" y="112" width="16" height="16" fill="#00ADD8" /><rect x="112" y="112" width="16" height="16" fill="#2d333b" /><rect x="144" y="112" width="16" height="16" fill="#00ADD8" /><rect x="176" y="112" width="16" height="16" fill="#00ADD8" /><rect x="208" y="112" width="16" height="16" fill="#00ADD8" /><rect x="240" y="112" width="16" height="16" fill="#2d333b" /><rect x="32" y="128" width="16" height="16" fill="#2d333b" /><rect x="64" y="128" width="16" height="16" fill="#00ADD8" /><rect x="96" y="128" width="16" height="16" fill="#2d333b" /><rect x="128" y="128" width="16" height="16" fill="#00ADD8" /><rect x="160" y="128" width="16" height="16" fill="#00ADD8" /><rect x="192" y="128" width="16" height="16" fill="#00ADD8" /><rect x="224" y="128" width="16" height="16" fill="#2d333b" /><rect x="32" y="144" width="16" height="16" fill="#2d333b" /><rect x="64" y="144" width="16" height="16" fill="#00ADD8" /><rect x="96" y="144" width="16" height="16" fill="#2d333b" /><rect x="128" y="144" width="16" height="16" fill="#00ADD8" /><rect x="160" y="144" width="16" height="16" fill="#00ADD8" /><rect x="192" y="144" width="16" height="16" fill="#00ADD8" /><rect x="224" y="144" width="16" height="16" fill="#2d333b" /><rect x="16" y="160" width="16" height="16" fill="#2d333b" /><rect x="48" y="160" width="16" height="16" fill="#00ADD8" /><rect x="80" y="160" width="16" height="16" fill="#2d333b" /><rect x="112" y="160" width="16" height="16" fill="#00ADD8" /><rect x="144" y="160" width="16" height="16" fill="#00ADD8" /><rect x="176" y="160" width="16" height="16" fill="#00ADD8" /><rect x="208" y="160" width="16" height="16" fill="#2d333b" /><rect x="0" y="176" width="16" height="16" fill="#2d333b" /><rect x="32" y="176" width="16" height="16" fill="#00ADD8" /><rect x="64" y="176" width="16" height="16" fill="#2d333b" /><rect x="96" y="176" width="16" height="16" fill="#00ADD8" /><rect x="128" y="176" width="16" height="16" fill="#00ADD8" /><rect x="160" y="176" width="16" height="16" fill="#00ADD8" /><rect x="192" y="176" width="16" height="16" fill="#2d333b" /><rect x="16" y="192" width="16" height="16" fill="#2d333b" /><rect x="48" y="192" width="16" height="16" fill="#2d333b" /><rect x="80" y="192" width="16" height="16" fill="#00ADD8" /><rect x="112" y="192" width="16" height="16" fill="#00ADD8" /><rect x="144" y="192" width="16" height="16" fill="#00ADD8" /><rect x="176" y="192" width="16" height="16" fill="#2d333b" /><rect x="32" y="208" width="16" height="16" fill="#2d333b" /><rect x="64" y="208" width="16" height="16" fill="#2d333b" /><rect x="96" y="208" width="16" height="16" fill="#2d333b" /><rect x="128" y="208" width="16" height="16" fill="#2d333b" /><rect x="160" y="208" width="16" height="16" fill="#2d333b" />
            
        <animateTransform 
            attributeName="transform" 
            type="translate" 
            values="0 0; 0 -8; 0 0" 
            dur="3s" 
            repeatCount="indefinite" 
        />
        <animate
            attributeName="opacity"
            values="0.7; 0.4; 0.7"
            dur="2s"
            repeatCount="indefinite"
        />
        </g>
        <!-- Speech Bubble -->
        
    <g transform="translate(226, -25)">
      <!-- Speech bubble -->
      <rect x="0" y="0" width="146" height="24" rx="10" ry="10" 
            fill="#FFFFFF" stroke="#2d333b" stroke-width="1.5"/>
      <!-- Bubble tail -->
      <polygon points="15,24 20,32 25,24" 
               fill="#FFFFFF" stroke="#2d333b" stroke-width="1.5"/>
      <line x1="16" y1="24" x2="24" y2="24" stroke="#FFFFFF" stroke-width="2"/>
      <!-- Text -->
      <text x="73" y="16" 
            font-family="'Segoe UI', Arial, sans-serif" font-size="10" 
            fill="#2d333b" text-anchor="middle">I'm fading away...</text>
    </g>
  
        <!-- Seasonal Accessory (z-index: above pet) -->
        
      </g>
      
      <!-- Level & Mood Text -->
      <text x="20" y="299" font-family="monospace" font-size="11" fill="#666">
        💀 Lv.0 
      </text>
      <text x="276" y="299" text-anchor="end" font-family="monospace" font-size="11" fill="#666">
        👻 GHOST 
      </text>
      
      <!-- XP Progress Bar -->
      <rect x="20" y="306" width="256" height="8" rx="4" fill="#e0e0e0" stroke="#0288d1" stroke-width="1"/>
      <rect x="20" y="306" width="0" height="8" rx="4" fill="#e53935">
        
      </rect>
      
      <!-- XP Text -->
      <text x="50%" y="329" text-anchor="middle" font-family="monospace" font-size="9" fill="#666">
        💀 DEAD - Commit to revive!
      </text>
    
      
      <!-- Achievement Badges -->
      <g transform="translate(15, 311)">
    <g class="achievements">
      
      <g transform="translate(5, 0)">
        <title>Early Bird: Early morning commit</title>
        <circle cx="10" cy="10" r="10" fill="rgba(255,255,255,0.9)" stroke="#ddd" stroke-width="1"/>
        <text x="10" y="14" text-anchor="middle" font-size="11">🐦</text>
      </g>
    
      <g transform="translate(30, 0)">
        <title>Weekend Warrior: Weekend commit</title>
        <circle cx="10" cy="10" r="10" fill="rgba(255,255,255,0.9)" stroke="#ddd" stroke-width="1"/>
        <text x="10" y="14" text-anchor="middle" font-size="11">🏖️</text>
      </g>
    
      
    </g>
  </g>
    </svg>