<svg xmlns="http://www.w3.org/2000/svg" width="296" height="341" viewBox="0 0 296 341">
      <style>
        .pet { transform-origin: center; }
      </style>
      <!-- Theme Background -->
      
        <rect x="5" y="5" width="286" height="326" rx="12" ry="12" fill="rgba(45, 51, 59, 0.15)"/>
      
      <!-- Weather Effects (behind pet) -->
      <g class="weather-layer" style="pointer-events: none;">
        
        <g>
          <circle cx="111.1951838581578" cy="316.6765472224557" r="3" fill="#FFEB3B" opacity="0.8">
          <animate attributeName="cx" values="111.1951838581578;140.93682883462418;111.1951838581578" dur="6.4107055861068885s" repeatCount="indefinite"/>
          <animate attributeName="cy" values="316.6765472224557;297.51549099445714;316.6765472224557" dur="6.4107055861068885s" repeatCount="indefinite"/>
          <animate attributeName="opacity" values="0.3;0.9;0.3" dur="1.5s" repeatCount="indefinite"/>
        </circle><circle cx="99.16329137966966" cy="160.30893480452454" r="3" fill="#FFEB3B" opacity="0.8">
          <animate attributeName="cx" values="99.16329137966966;82.74045464290545;99.16329137966966" dur="6.24791965424816s" repeatCount="indefinite"/>
          <animate attributeName="cy" values="160.30893480452454;176.43820588746235;160.30893480452454" dur="6.24791965424816s" repeatCount="indefinite"/>
          <animate attributeName="opacity" values="0.3;0.9;0.3" dur="1.5s" repeatCount="indefinite"/>
        </circle><circle cx="136.1991118483133" cy="130.4174743252703" r="3" fill="#FFEB3B" opacity="0.8">
          <animate attributeName="cx" values="136.1991118483133;125.8455738837489;136.1991118483133" dur="6.756726554797193s" repeatCount="indefinite"/>
          <animate attributeName="cy" values="130.4174743252703;113.57806696268253;130.4174743252703" dur="6.756726554797193s" repeatCount="indefinite"/>
          <animate attributeName="opacity" values="0.3;0.9;0.3" dur="1.5s" repeatCount="indefinite"/>
        </circle><circle cx="100.18184189788815" cy="36.6872338185365" r="3" fill="#FFEB3B" opacity="0.8">
          <animate attributeName="cx" values="100.18184189788815;85.08207360061591;100.18184189788815" dur="6.5948550196151885s" repeatCount="indefinite"/>
          <animate attributeName="cy" values="36.6872338185365;51.073970329376664;36.6872338185365" dur="6.5948550196151885s" repeatCount="indefinite"/>
          <animate attributeName="opacity" values="0.3;0.9;0.3" dur="1.5s" repeatCount="indefinite"/>
        </circle><circle cx="252.3720916729966" cy="203.50546468524803" r="3" fill="#FFEB3B" opacity="0.8">
          <animate attributeName="cx" values="252.3720916729966;244.80743378239745;252.3720916729966" dur="4.054886534499185s" repeatCount="indefinite"/>
          <animate attributeName="cy" values="203.50546468524803;202.5528207170846;203.50546468524803" dur="4.054886534499185s" repeatCount="indefinite"/>
          <animate attributeName="opacity" values="0.3;0.9;0.3" dur="1.5s" repeatCount="indefinite"/>
        </circle><circle cx="256.82677707055007" cy="300.82087159689445" r="3" fill="#FFEB3B" opacity="0.8">
          <animate attributeName="cx" values="256.82677707055007;250.51039229597117;256.82677707055007" dur="4.9855656954055325s" repeatCount="indefinite"/>
          <animate attributeName="cy" values="300.82087159689445;273.55014087698714;300.82087159689445" dur="4.9855656954055325s" repeatCount="indefinite"/>
          <animate attributeName="opacity" values="0.3;0.9;0.3" dur="1.5s" repeatCount="indefinite"/>
        </circle><circle cx="27.169020130261742" cy="312.12306330776414" r="3" fill="#FFEB3B" opacity="0.8">
          <animate attributeName="cx" values="27.169020130261742;38.29754333486813;27.169020130261742" dur="5.382963684504755s" repeatCount="indefinite"/>
          <animate attributeName="cy" values="312.12306330776414;295.57901522139025;312.12306330776414" dur="5.382963684504755s" repeatCount="indefinite"/>
          <animate attributeName="opacity" values="0.3;0.9;0.3" dur="1.5s" repeatCount="indefinite"/>
        </circle><circle cx="178.6541823503474" cy="167.81790987758052" r="3" fill="#FFEB3B" opacity="0.8">
          <animate attributeName="cx" values="178.6541823503474;159.90384475180332;178.6541823503474" dur="4.430313745138178s" repeatCount="indefinite"/>
          <animate attributeName="cy" values="167.81790987758052;145.48778632804036;167.81790987758052" dur="4.430313745138178s" repeatCount="indefinite"/>
          <animate attributeName="opacity" values="0.3;0.9;0.3" dur="1.5s" repeatCount="indefinite"/>
        </circle><circle cx="197.1940853606726" cy="211.08071779177072" r="3" fill="#FFEB3B" opacity="0.8">
          <animate attributeName="cx" values="197.1940853606726;181.636695007286;197.1940853606726" dur="6.13092646800773s" repeatCount="indefinite"/>
          <animate attributeName="cy" values="211.08071779177072;196.4824545503639;211.08071779177072" dur="6.13092646800773s" repeatCount="indefinite"/>
          <animate attributeName="opacity" values="0.3;0.9;0.3" dur="1.5s" repeatCount="indefinite"/>
        </circle><circle cx="185.361608093143" cy="65.16209561498707" r="3" fill="#FFEB3B" opacity="0.8">
          <animate attributeName="cx" values="185.361608093143;192.85529318964043;185.361608093143" dur="3.8517135173090997s" repeatCount="indefinite"/>
          <animate attributeName="cy" values="65.16209561498707;42.12723196105169;65.16209561498707" dur="3.8517135173090997s" repeatCount="indefinite"/>
          <animate attributeName="opacity" values="0.3;0.9;0.3" dur="1.5s" repeatCount="indefinite"/>
        </circle>
        </g>
      
      </g>
      <!-- Evolution Effects (behind pet) -->
      <g class="evolution-layer" style="pointer-events: none;">
        
      </g>
      <g transform="translate(20, 20)" opacity="0.7">
        <g class="pet">
            <rect x="80" y="0" width="16" height="16" fill="#2d333b" /><rect x="112" y="0" width="16" height="16" fill="#2d333b" /><rect x="144" y="0" width="16" height="16" fill="#2d333b" /><rect x="48" y="16" width="16" height="16" fill="#2d333b" /><rect x="80" y="16" width="16" height="16" fill="#00ADD8" /><rect x="112" y="16" width="16" height="16" fill="#00ADD8" /><rect x="144" y="16" width="16" height="16" fill="#00ADD8" /><rect x="176" y="16" width="16" height="16" fill="#00ADD8" /><rect x="208" y="16" width="16" height="16" fill="#2d333b" /><rect x="32" y="32" width="16" height="16" fill="#2d333b" /><rect x="64" y="32" width="16" height="16" fill="#00ADD8" /><rect x="96" y="32" width="16" height="16" fill="#00ADD8" /><rect x="128" y="32" width="16" height="16" fill="#00ADD8" /><rect x="160" y="32" width="16" height="16" fill="#00ADD8" /><rect x="192" y="32" width="16" height="16" fill="#00ADD8" /><rect x="16" y="48" width="16" height="16" fill="#2d333b" /><rect x="48" y="48" width="16" height="16" fill="#00ADD8" /><rect x="80" y="48" width="16" height="16" fill="#2d333b" /><rect x="112" y="48" width="16" height="16" fill="#2d333b" /><rect x="144" y="48" width="16" height="16" fill="#00ADD8" /><rect x="176" y="48" width="16" height="16" fill="#00ADD8" /><rect x="208" y="48" width="16" height="16" fill="#2d333b" /><rect x="16" y="64" width="16" height="16" fill="#2d333b" /><rect x="48" y="64" width="16" height="16" fill="#00ADD8" /><rect x="80" y="64" width="16" height="16" fill="#2d333b" /><rect x="112" y="64" width="16" height="16" fill="#2d333b" /><rect x="144" y="64" width="16" height="16" fill="#00ADD8" /><rect x="176" y="64" width="16" height="16" fill="#00ADD8" /><rect x="208" y="64" width="16" height="16" fill="#2d333b" /><rect x="0" y="80" width="16" height="16" fill="#2d333b" /><rect x="32" y="80" width="16" height="16" fill="#00ADD8" /><rect x="64" y="80" width="16" height="16" fill="#00ADD8" /><rect x="96" y="80" width="16" height="16" fill="#00ADD8" /><rect x="128" y="80" width="16" height="16" fill="#00ADD8" /><rect x="160" y="80" width="16" height="16" fill="#00ADD8" /><rect x="192" y="80" width="16" height="16" fill="#2d333b" /><rect x="224" y="80" width="16" height="16" fill="#2d333b" /><rect x="0" y="96" width="16" height="16" fill="#2d333b" /><rect x="32" y="96" width="16" height="16" fill="#00ADD8" /><rect x="64" y="96" width="16" height="16" fill="#00ADD8" /><rect x="96" y="96" width="16" height="16" fill="#00ADD8" /><rect x="128" y="96" width="16" height="16" fill="#2d333b" /><rect x="160" y="96" width="16" height="16" fill="#00ADD8" /><rect x="192" y="96" width="16" height="16" fill="#00ADD8" /><rect x="224" y="96" width="16" height="16" fill="#2d333b" /><rect x="16" y="112" width="16" height="16" fill="#2d333b" /><rect x="48" y="112" width="16" height="16" fill="#00ADD8" /><rect x="80" y="112" width="16" height="16" fill="#00ADD8" /><rect x="112" y="112" width="16" height="16" fill="#2d333b" /><rect x="144" y="112" width="16" height="16" fill="#00ADD8" /><rect x="176" y="112" width="16" height="16" fill="#00ADD8" /><rect x="208" y="112" width="16" height="16" fill="#00ADD8" /><rect x="240" y="112" width="16" height="16" fill="#2d333b" /><rect x="32" y="128" width="16" height="16" fill="#2d333b" /><rect x="64" y="128" width="16" height="16" fill="#00ADD8" /><rect x="96" y="128" width="16" height="16" fill="#2d333b" /><rect x="128" y="128" width="16" height="16" fill="#00ADD8" /><rect x="160" y="128" width="16" height="16" fill="#00ADD8" /><rect x="192" y="128" width="16" height="16" fill="#00ADD8" /><rect x="224" y="128" width="16" height="16" fill="#2d333b" /><rect x="32" y="144" width="16" height="16" fill="#2d333b" /><rect x="64" y="144" width="16" height="16" fill="#00ADD8" /><rect x="96" y="144" width="16" height="16" fill="#2d333b" /><rect x="128" y="144" width="16" height="16" fill="#00ADD8" /><rect x="160" y="144" width="16" height="16" fill="#00ADD8" /><rect x="192" y="144" width="16" height="16" fill="#00ADD8" /><rect x="224" y="144" width="16" height="16" fill="#2d333b" /><rect x="16" y="160" width="16" height="16" fill="#2d333b" /><rect x="48" y="160" width="16" height="16" fill="#00ADD8" /><rect x="80" y="160" width="16" height="16" fill="#2d333b" /><rect x="112" y="160" width="16" height="16" fill="#00ADD8" /><rect x="144" y="160" width="16" height="16" fill="#00ADD8" /><rect x="176" y="160" width="16" height="16" fill="#00ADD8" /><rect x="208" y="160" width="16" height="16" fill="#2d333b" /><rect x="0" y="176" width="16" height="16" fill="#2d333b" /><rect x="32" y="176" width="16" height="16" fill="#00ADD8" /><rect x="64" y="176" width="16" height="16" fill="#2d333b" /><rect x="96" y="176" width="16" height="16" fill="#00ADD8" /><rect x="128" y="176" width="16" height="16" fill="#00ADD8" /><rect x="160" y="176" width="16" height="16" fill="#00ADD8" /><rect x="192" y="176" width="16" height="16" fill="#2d333b" /><rect x="16" y="192" width="16" height="16" fill="#2d333b" /><rect x="48" y="192" width="16" height="16" fill="#2d333b" /><rect x="80" y="192" width="16" height="16" fill="#00ADD8" /><rect x="112" y="192" width="16" height="16" fill="#00ADD8" /><rect x="144" y="192" width="16" height="16" fill="#00ADD8" /><rect x="176" y="192" width="16" height="16" fill="#2d333b" /><rect x="32" y="208" width="16" height="16" fill="#2d333b" /><rect x="64" y="208" width="16" height="16" fill="#2d333b" /><rect x="96" y="208" width="16" height="16" fill="#2d333b" /><rect x="128" y="208" width="16" height="16" fill="#2d333b" /><rect x="160" y="208" width="16" height="16" fill="#2d333b" />
            
        <animateTransform 
            attributeName="transform" 
            type="translate" 
            values="0 0; 0 -8; 0 0" 
            dur="3s" 
            repeatCount="indefinite" 
        />
        <animate
            attributeName="opacity"
            values="0.7; 0.4; 0.7"
            dur="2s"
            repeatCount="indefinite"
        />
        </g>
        <!-- Speech Bubble -->
        
    <g transform="translate(226, -25)">
      <!-- Speech bubble -->
      <rect x="0" y="0" width="132" height="24" rx="10" ry="10" 
            fill="#FFFFFF" stroke="#2d333b" stroke-width="1.5"/>
      <!-- Bubble tail -->
      <polygon points="15,24 20,32 25,24" 
               fill="#FFFFFF" stroke="#2d333b" stroke-width="1.5"/>
      <line x1="16" y1="24" x2="24" y2="24" stroke="#FFFFFF" stroke-width="2"/>
      <!-- Text -->
      <text x="66" y="16" 
            font-family="'Segoe UI', Arial, sans-serif" font-size="10" 
            fill="#2d333b" text-anchor="middle">Merge with love~</text>
    </g>
  
        <!-- Seasonal Accessory (z-index: above pet) -->
        <!-- Seasonal: VALENTINE -->

    <g transform="translate(120, -35)">
      <g>
        <!-- Pixel Heart -->
        <rect x="4" y="0" width="8" height="4" fill="#FF6B9D"/>
        <rect x="16" y="0" width="8" height="4" fill="#FF6B9D"/>
        <rect x="0" y="4" width="28" height="4" fill="#FF6B9D"/>
        <rect x="0" y="8" width="28" height="4" fill="#FF8FAB"/>
        <rect x="4" y="12" width="20" height="4" fill="#FF8FAB"/>
        <rect x="8" y="16" width="12" height="4" fill="#FFB3C6"/>
        <rect x="12" y="20" width="4" height="4" fill="#FFB3C6"/>
        <!-- Sparkle -->
        <circle cx="8" cy="6" r="2" fill="#FFFFFF" opacity="0.7"/>
        <!-- Pulse animation -->
        <animateTransform 
          attributeName="transform" 
          type="scale" 
          values="1;1.1;1" 
          dur="1s" 
          repeatCount="indefinite"
          additive="sum"
        />
      </g>
    </g>
  
      </g>
      
      <!-- Level & Mood Text -->
      <text x="20" y="299" font-family="monospace" font-size="11" fill="#666">
        💀 Lv.0 
      </text>
      <text x="276" y="299" text-anchor="end" font-family="monospace" font-size="11" fill="#666">
        👻 GHOST 
      </text>
      
      <!-- XP Progress Bar -->
      <rect x="20" y="306" width="256" height="8" rx="4" fill="#e0e0e0" stroke="#0288d1" stroke-width="1"/>
      <rect x="20" y="306" width="0" height="8" rx="4" fill="#e53935">
        
      </rect>
      
      <!-- XP Text -->
      <text x="50%" y="329" text-anchor="middle" font-family="monospace" font-size="9" fill="#666">
        💀 DEAD - Commit to revive!
      </text>
    
      
      <!-- Achievement Badges -->
      <g transform="translate(15, 311)">
    <g class="achievements">
      
      <g transform="translate(5, 0)">
        <title>Early Bird: Early morning commit</title>
        <circle cx="10" cy="10" r="10" fill="rgba(255,255,255,0.9)" stroke="#ddd" stroke-width="1"/>
        <text x="10" y="14" text-anchor="middle" font-size="11">🐦</text>
      </g>
    
      
    </g>
  </g>
    </svg>