<svg xmlns="http://www.w3.org/2000/svg" width="296" height="341" viewBox="0 0 296 341">
      <style>
        .pet { transform-origin: center; }
      </style>
      <!-- Theme Background -->
      
        <rect x="5" y="5" width="286" height="326" rx="12" ry="12" fill="rgba(45, 51, 59, 0.15)"/>
      
      <!-- Weather Effects (behind pet) -->
      <g class="weather-layer" style="pointer-events: none;">
        
        <g fill="#FFD700">
          <circle cx="188.87847946665977" cy="64.54218874611027" r="2.336012690372405">
          <animate attributeName="opacity" values="0.3;1;0.3" dur="2.6553860092720893s" repeatCount="indefinite"/>
        </circle><circle cx="281.6243454582569" cy="144.60785705373357" r="1.1538076719919026">
          <animate attributeName="opacity" values="0.3;1;0.3" dur="1.5744944962113503s" repeatCount="indefinite"/>
        </circle><circle cx="108.06870852448395" cy="140.17314440756812" r="1.908575994695561">
          <animate attributeName="opacity" values="0.3;1;0.3" dur="2.5480564693917116s" repeatCount="indefinite"/>
        </circle><circle cx="186.6239093674332" cy="11.135575982645491" r="2.7733626967332348">
          <animate attributeName="opacity" values="0.3;1;0.3" dur="2.4530216108145932s" repeatCount="indefinite"/>
        </circle><circle cx="33.80423868965195" cy="80.48860705302731" r="1.7078929295470662">
          <animate attributeName="opacity" values="0.3;1;0.3" dur="1.1885188030258025s" repeatCount="indefinite"/>
        </circle><circle cx="40.192940966652145" cy="124.43203898424859" r="1.3594242574775857">
          <animate attributeName="opacity" values="0.3;1;0.3" dur="2.25873402208968s" repeatCount="indefinite"/>
        </circle><circle cx="180.47101620862176" cy="141.59280090233486" r="1.3660880227722996">
          <animate attributeName="opacity" values="0.3;1;0.3" dur="1.3397561909647946s" repeatCount="indefinite"/>
        </circle><circle cx="104.49311976684798" cy="73.64110064926777" r="1.556874349178265">
          <animate attributeName="opacity" values="0.3;1;0.3" dur="2.7107195278565137s" repeatCount="indefinite"/>
        </circle><circle cx="15.23103825797039" cy="108.2081848392404" r="2.6559551398705823">
          <animate attributeName="opacity" values="0.3;1;0.3" dur="1.21756776735121s" repeatCount="indefinite"/>
        </circle><circle cx="41.010334677300975" cy="66.62436308792579" r="1.4154103965644964">
          <animate attributeName="opacity" values="0.3;1;0.3" dur="2.886864082588934s" repeatCount="indefinite"/>
        </circle><circle cx="87.807293831396" cy="56.786561037233" r="1.0234248758470397">
          <animate attributeName="opacity" values="0.3;1;0.3" dur="1.7485943092683227s" repeatCount="indefinite"/>
        </circle><circle cx="224.85011750006987" cy="157.5978118740151" r="1.6177709901526822">
          <animate attributeName="opacity" values="0.3;1;0.3" dur="2.3595867720771513s" repeatCount="indefinite"/>
        </circle><circle cx="18.05503945692921" cy="103.2083284868253" r="1.0124646546988023">
          <animate attributeName="opacity" values="0.3;1;0.3" dur="1.408052383288223s" repeatCount="indefinite"/>
        </circle><circle cx="54.51184596701536" cy="20.05777642351905" r="2.2954343589967747">
          <animate attributeName="opacity" values="0.3;1;0.3" dur="1.2414230594280724s" repeatCount="indefinite"/>
        </circle><circle cx="170.79217644747706" cy="20.7415671741381" r="1.4911670050277421">
          <animate attributeName="opacity" values="0.3;1;0.3" dur="2.898161616207837s" repeatCount="indefinite"/>
        </circle>
        </g>
      
      </g>
      <!-- Evolution Effects (behind pet) -->
      <g class="evolution-layer" style="pointer-events: none;">
        
      </g>
      <g transform="translate(39.2, 39.2) scale(0.85)" opacity="1">
        <g class="pet">
            <rect x="64" y="16" width="16" height="16" fill="#2d333b" /><rect x="80" y="16" width="16" height="16" fill="#2d333b" /><rect x="96" y="16" width="16" height="16" fill="#2d333b" /><rect x="112" y="16" width="16" height="16" fill="#2d333b" /><rect x="128" y="16" width="16" height="16" fill="#2d333b" /><rect x="144" y="16" width="16" height="16" fill="#2d333b" /><rect x="160" y="16" width="16" height="16" fill="#2d333b" /><rect x="176" y="16" width="16" height="16" fill="#2d333b" /><rect x="32" y="32" width="16" height="16" fill="#2d333b" /><rect x="48" y="32" width="16" height="16" fill="#2d333b" /><rect x="64" y="32" width="16" height="16" fill="#00ADD8" /><rect x="80" y="32" width="16" height="16" fill="#00ADD8" /><rect x="96" y="32" width="16" height="16" fill="#00ADD8" /><rect x="112" y="32" width="16" height="16" fill="#00ADD8" /><rect x="128" y="32" width="16" height="16" fill="#00ADD8" /><rect x="144" y="32" width="16" height="16" fill="#00ADD8" /><rect x="160" y="32" width="16" height="16" fill="#00ADD8" /><rect x="176" y="32" width="16" height="16" fill="#00ADD8" /><rect x="192" y="32" width="16" height="16" fill="#2d333b" /><rect x="208" y="32" width="16" height="16" fill="#2d333b" /><rect x="16" y="48" width="16" height="16" fill="#2d333b" /><rect x="32" y="48" width="16" height="16" fill="#00ADD8" /><rect x="48" y="48" width="16" height="16" fill="#00ADD8" /><rect x="64" y="48" width="16" height="16" fill="#2d333b" /><rect x="80" y="48" width="16" height="16" fill="#2d333b" /><rect x="96" y="48" width="16" height="16" fill="#2d333b" /><rect x="112" y="48" width="16" height="16" fill="#2d333b" /><rect x="128" y="48" width="16" height="16" fill="#2d333b" /><rect x="144" y="48" width="16" height="16" fill="#2d333b" /><rect x="160" y="48" width="16" height="16" fill="#00ADD8" /><rect x="176" y="48" width="16" height="16" fill="#00ADD8" /><rect x="192" y="48" width="16" height="16" fill="#00ADD8" /><rect x="208" y="48" width="16" height="16" fill="#00ADD8" /><rect x="224" y="48" width="16" height="16" fill="#2d333b" /><rect x="16" y="64" width="16" height="16" fill="#2d333b" /><rect x="32" y="64" width="16" height="16" fill="#00ADD8" /><rect x="48" y="64" width="16" height="16" fill="#00ADD8" /><rect x="64" y="64" width="16" height="16" fill="#00ADD8" /><rect x="80" y="64" width="16" height="16" fill="#00ADD8" /><rect x="96" y="64" width="16" height="16" fill="#00ADD8" /><rect x="112" y="64" width="16" height="16" fill="#00ADD8" /><rect x="128" y="64" width="16" height="16" fill="#00ADD8" /><rect x="144" y="64" width="16" height="16" fill="#00ADD8" /><rect x="160" y="64" width="16" height="16" fill="#00ADD8" /><rect x="176" y="64" width="16" height="16" fill="#00ADD8" /><rect x="192" y="64" width="16" height="16" fill="#00ADD8" /><rect x="208" y="64" width="16" height="16" fill="#2d333b" /><rect x="0" y="80" width="16" height="16" fill="#2d333b" /><rect x="16" y="80" width="16" height="16" fill="#00ADD8" /><rect x="32" y="80" width="16" height="16" fill="#00ADD8" /><rect x="48" y="80" width="16" height="16" fill="#00ADD8" /><rect x="64" y="80" width="16" height="16" fill="#00ADD8" /><rect x="80" y="80" width="16" height="16" fill="#00ADD8" /><rect x="96" y="80" width="16" height="16" fill="#00ADD8" /><rect x="112" y="80" width="16" height="16" fill="#00ADD8" /><rect x="128" y="80" width="16" height="16" fill="#00ADD8" /><rect x="144" y="80" width="16" height="16" fill="#00ADD8" /><rect x="160" y="80" width="16" height="16" fill="#00ADD8" /><rect x="176" y="80" width="16" height="16" fill="#00ADD8" /><rect x="192" y="80" width="16" height="16" fill="#00ADD8" /><rect x="208" y="80" width="16" height="16" fill="#00ADD8" /><rect x="224" y="80" width="16" height="16" fill="#2d333b" /><rect x="0" y="96" width="16" height="16" fill="#2d333b" /><rect x="16" y="96" width="16" height="16" fill="#00ADD8" /><rect x="32" y="96" width="16" height="16" fill="#00ADD8" /><rect x="48" y="96" width="16" height="16" fill="#00ADD8" /><rect x="64" y="96" width="16" height="16" fill="#00ADD8" /><rect x="80" y="96" width="16" height="16" fill="#2d333b" /><rect x="96" y="96" width="16" height="16" fill="#00ADD8" /><rect x="112" y="96" width="16" height="16" fill="#00ADD8" /><rect x="128" y="96" width="16" height="16" fill="#00ADD8" /><rect x="144" y="96" width="16" height="16" fill="#00ADD8" /><rect x="160" y="96" width="16" height="16" fill="#00ADD8" /><rect x="176" y="96" width="16" height="16" fill="#00ADD8" /><rect x="192" y="96" width="16" height="16" fill="#00ADD8" /><rect x="208" y="96" width="16" height="16" fill="#00ADD8" /><rect x="224" y="96" width="16" height="16" fill="#2d333b" /><rect x="16" y="112" width="16" height="16" fill="#2d333b" /><rect x="32" y="112" width="16" height="16" fill="#00ADD8" /><rect x="48" y="112" width="16" height="16" fill="#00ADD8" /><rect x="64" y="112" width="16" height="16" fill="#00ADD8" /><rect x="80" y="112" width="16" height="16" fill="#2d333b" /><rect x="96" y="112" width="16" height="16" fill="#00ADD8" /><rect x="112" y="112" width="16" height="16" fill="#00ADD8" /><rect x="128" y="112" width="16" height="16" fill="#00ADD8" /><rect x="144" y="112" width="16" height="16" fill="#00ADD8" /><rect x="160" y="112" width="16" height="16" fill="#00ADD8" /><rect x="176" y="112" width="16" height="16" fill="#00ADD8" /><rect x="192" y="112" width="16" height="16" fill="#2d333b" /><rect x="32" y="128" width="16" height="16" fill="#2d333b" /><rect x="48" y="128" width="16" height="16" fill="#00ADD8" /><rect x="64" y="128" width="16" height="16" fill="#00ADD8" /><rect x="80" y="128" width="16" height="16" fill="#2d333b" /><rect x="96" y="128" width="16" height="16" fill="#00ADD8" /><rect x="112" y="128" width="16" height="16" fill="#00ADD8" /><rect x="128" y="128" width="16" height="16" fill="#00ADD8" /><rect x="144" y="128" width="16" height="16" fill="#00ADD8" /><rect x="160" y="128" width="16" height="16" fill="#00ADD8" /><rect x="176" y="128" width="16" height="16" fill="#2d333b" /><rect x="32" y="144" width="16" height="16" fill="#2d333b" /><rect x="48" y="144" width="16" height="16" fill="#00ADD8" /><rect x="64" y="144" width="16" height="16" fill="#2d333b" /><rect x="80" y="144" width="16" height="16" fill="#00ADD8" /><rect x="96" y="144" width="16" height="16" fill="#00ADD8" /><rect x="112" y="144" width="16" height="16" fill="#00ADD8" /><rect x="128" y="144" width="16" height="16" fill="#00ADD8" /><rect x="144" y="144" width="16" height="16" fill="#00ADD8" /><rect x="160" y="144" width="16" height="16" fill="#00ADD8" /><rect x="176" y="144" width="16" height="16" fill="#2d333b" /><rect x="48" y="160" width="16" height="16" fill="#2d333b" /><rect x="64" y="160" width="16" height="16" fill="#2d333b" /><rect x="80" y="160" width="16" height="16" fill="#00ADD8" /><rect x="96" y="160" width="16" height="16" fill="#00ADD8" /><rect x="112" y="160" width="16" height="16" fill="#00ADD8" /><rect x="128" y="160" width="16" height="16" fill="#00ADD8" /><rect x="144" y="160" width="16" height="16" fill="#00ADD8" /><rect x="160" y="160" width="16" height="16" fill="#2d333b" /><rect x="64" y="176" width="16" height="16" fill="#2d333b" /><rect x="80" y="176" width="16" height="16" fill="#2d333b" /><rect x="96" y="176" width="16" height="16" fill="#2d333b" /><rect x="112" y="176" width="16" height="16" fill="#2d333b" /><rect x="128" y="176" width="16" height="16" fill="#2d333b" /><rect x="144" y="176" width="16" height="16" fill="#2d333b" />
            
        <animateTransform 
            attributeName="transform" 
            type="scale" 
            values="1 1; 1.02 0.98; 1 1" 
            dur="2s" 
            repeatCount="indefinite" 
        />
        </g>
        <!-- Speech Bubble -->
        
    <g transform="translate(226, -25)">
      <!-- Speech bubble -->
      <rect x="0" y="0" width="111" height="24" rx="10" ry="10" 
            fill="#FFFFFF" stroke="#2d333b" stroke-width="1.5"/>
      <!-- Bubble tail -->
      <polygon points="15,24 20,32 25,24" 
               fill="#FFFFFF" stroke="#2d333b" stroke-width="1.5"/>
      <line x1="16" y1="24" x2="24" y2="24" stroke="#FFFFFF" stroke-width="2"/>
      <!-- Text -->
      <text x="55.5" y="16" 
            font-family="'Segoe UI', Arial, sans-serif" font-size="10" 
            fill="#2d333b" text-anchor="middle">Recharging...</text>
    </g>
  
        <!-- Seasonal Accessory (z-index: above pet) -->
        
      </g>
      
      <!-- Level & Mood Text -->
      <text x="20" y="299" font-family="monospace" font-size="11" fill="#666">
        🐣 Lv.9 Baby
      </text>
      <text x="276" y="299" text-anchor="end" font-family="monospace" font-size="11" fill="#666">
        💤 SLEEPING 
      </text>
      
      <!-- XP Progress Bar -->
      <rect x="20" y="306" width="256" height="8" rx="4" fill="#e0e0e0" stroke="#0288d1" stroke-width="1"/>
      <rect x="20" y="306" width="12.8" height="8" rx="4" fill="#4fc3f7">
        <animate attributeName="width" from="0" to="12.8" dur="0.5s" fill="freeze"/>
      </rect>
      
      <!-- XP Text -->
      <text x="50%" y="329" text-anchor="middle" font-family="monospace" font-size="9" fill="#666">
        XP: 650 / 810 (5%)
      </text>
    
      
      <!-- Achievement Badges -->
      <g transform="translate(15, 311)">
    <g class="achievements">
      
      <g transform="translate(5, 0)">
        <title>Rising Star: Level 5</title>
        <circle cx="10" cy="10" r="10" fill="rgba(255,255,255,0.9)" stroke="#ddd" stroke-width="1"/>
        <text x="10" y="14" text-anchor="middle" font-size="11">🌟</text>
      </g>
    
      <g transform="translate(30, 0)">
        <title>Night Owl: Late night commit</title>
        <circle cx="10" cy="10" r="10" fill="rgba(255,255,255,0.9)" stroke="#ddd" stroke-width="1"/>
        <text x="10" y="14" text-anchor="middle" font-size="11">🦉</text>
      </g>
    
      
    </g>
  </g>
    </svg>