<svg xmlns="http://www.w3.org/2000/svg" width="232" height="232" viewBox="0 0 232 232">
      <style>
        .pet { transform-origin: center; }
      </style>
      <!-- Subtle background for visibility on light/dark themes -->
      <rect x="5" y="5" width="222" height="217" rx="12" ry="12" fill="rgba(45, 51, 59, 0.15)" />
      <g transform="translate(20, 20)" opacity="1">
        <g class="pet">
            <rect x="80" y="16" width="16" height="16" fill="#2d333b" /><rect x="96" y="16" width="16" height="16" fill="#2d333b" /><rect x="112" y="16" width="16" height="16" fill="#2d333b" /><rect x="64" y="32" width="16" height="16" fill="#2d333b" /><rect x="80" y="32" width="16" height="16" fill="#98c379" /><rect x="96" y="32" width="16" height="16" fill="#98c379" /><rect x="112" y="32" width="16" height="16" fill="#98c379" /><rect x="128" y="32" width="16" height="16" fill="#2d333b" /><rect x="48" y="48" width="16" height="16" fill="#2d333b" /><rect x="64" y="48" width="16" height="16" fill="#98c379" /><rect x="80" y="48" width="16" height="16" fill="#ffffff" /><rect x="96" y="48" width="16" height="16" fill="#2d333b" /><rect x="112" y="48" width="16" height="16" fill="#98c379" /><rect x="128" y="48" width="16" height="16" fill="#98c379" /><rect x="144" y="48" width="16" height="16" fill="#2d333b" /><rect x="48" y="64" width="16" height="16" fill="#2d333b" /><rect x="64" y="64" width="16" height="16" fill="#98c379" /><rect x="80" y="64" width="16" height="16" fill="#98c379" /><rect x="96" y="64" width="16" height="16" fill="#98c379" /><rect x="112" y="64" width="16" height="16" fill="#98c379" /><rect x="128" y="64" width="16" height="16" fill="#98c379" /><rect x="144" y="64" width="16" height="16" fill="#2d333b" /><rect x="64" y="80" width="16" height="16" fill="#2d333b" /><rect x="80" y="80" width="16" height="16" fill="#2d333b" /><rect x="96" y="80" width="16" height="16" fill="#2d333b" /><rect x="112" y="80" width="16" height="16" fill="#98c379" /><rect x="128" y="80" width="16" height="16" fill="#98c379" /><rect x="144" y="80" width="16" height="16" fill="#2d333b" /><rect x="48" y="96" width="16" height="16" fill="#2d333b" /><rect x="64" y="96" width="16" height="16" fill="#98c379" /><rect x="80" y="96" width="16" height="16" fill="#98c379" /><rect x="96" y="96" width="16" height="16" fill="#2d333b" /><rect x="112" y="96" width="16" height="16" fill="#98c379" /><rect x="128" y="96" width="16" height="16" fill="#98c379" /><rect x="144" y="96" width="16" height="16" fill="#2d333b" /><rect x="32" y="112" width="16" height="16" fill="#2d333b" /><rect x="48" y="112" width="16" height="16" fill="#98c379" /><rect x="64" y="112" width="16" height="16" fill="#98c379" /><rect x="80" y="112" width="16" height="16" fill="#98c379" /><rect x="96" y="112" width="16" height="16" fill="#98c379" /><rect x="112" y="112" width="16" height="16" fill="#98c379" /><rect x="128" y="112" width="16" height="16" fill="#2d333b" /><rect x="16" y="128" width="16" height="16" fill="#2d333b" /><rect x="32" y="128" width="16" height="16" fill="#98c379" /><rect x="48" y="128" width="16" height="16" fill="#98c379" /><rect x="64" y="128" width="16" height="16" fill="#98c379" /><rect x="80" y="128" width="16" height="16" fill="#98c379" /><rect x="96" y="128" width="16" height="16" fill="#98c379" /><rect x="112" y="128" width="16" height="16" fill="#2d333b" /><rect x="16" y="144" width="16" height="16" fill="#2d333b" /><rect x="32" y="144" width="16" height="16" fill="#98c379" /><rect x="48" y="144" width="16" height="16" fill="#98c379" /><rect x="64" y="144" width="16" height="16" fill="#2d333b" /><rect x="80" y="144" width="16" height="16" fill="#2d333b" /><rect x="96" y="144" width="16" height="16" fill="#98c379" /><rect x="112" y="144" width="16" height="16" fill="#2d333b" /><rect x="32" y="160" width="16" height="16" fill="#2d333b" /><rect x="48" y="160" width="16" height="16" fill="#2d333b" /><rect x="96" y="160" width="16" height="16" fill="#2d333b" /><rect x="112" y="160" width="16" height="16" fill="#2d333b" />
            
        <animateTransform 
            attributeName="transform" 
            type="translate" 
            values="0 0; 0 -4; 0 0" 
            dur="0.5s" 
            repeatCount="indefinite" 
        />
        </g>
      </g>
      
      <!-- Mood Status Text -->
      <text x="50%" y="227" text-anchor="middle" font-family="monospace" font-size="12" fill="#666">
        HAPPY
      </text>
    </svg>